# AST/ASF file generated using VICON BodyLanguage
# -----------------------------------------------
:version 1.10
:name VICON
:units
  mass 1.0
  length 0.45
  angle deg
:documentation
   .ast/.asf automatically generated from VICON data using
   VICON BodyBuilder and BodyLanguage model FoxedUp or BRILLIANT.MOD
:root
   order TX TY TZ RX RY RZ
   axis XYZ
   position 0 0 0  
   orientation 0 0 0 
:bonedata
  begin
     id 1 
     name lhipjoint
     direction 0.692814 -0.645514 0.321437 
     length 2.38754 
     axis 0 0 0  XYZ
  end
  begin
     id 2 
     name lfemur
     direction 0.34202 -0.939693 0  
     length 6.41921  
     axis 0 0 20  XYZ
    dof rx ry rz
    limits (-160.0 20.0)
           (-70.0 70.0)
           (-60.0 70.0)
  end
  begin
     id 3 
     name ltibia
     direction 0.34202 -0.939693 0   
     length 6.98247   
     axis 0 0 20   XYZ
    dof rx
    limits (-10.0 170.0)
  end
  begin
     id 4 
     name lfoot
     direction 0.0947186 -0.260237 0.960888   
     length 1.83034   
     axis -90 7.62852e-016 20   XYZ
    dof rx rz
    limits (-45.0 90.0)
           (-70.0 20.0)
  end
  begin
     id 5 
     name ltoes
     direction 1.53538e-011 -4.21952e-011 1   
     length 0.920499   
     axis -90 7.62852e-016 20   XYZ
    dof rx
    limits (-90.0 20.0)
  end
  begin
     id 6 
     name rhipjoint
     direction -0.631686 -0.693949 0.345555   
     length 2.2209  
     axis 0 0 0  XYZ 
  end
  begin
     id 7 
     name rfemur
     direction -0.34202 -0.939693 0   
     length 6.49542   
     axis 0 0 -20   XYZ
    dof rx ry rz
    limits (-160.0 20.0)
           (-70.0 70.0)
           (-70.0 60.0)
  end
  begin
     id 8 
     name rtibia
     direction -0.34202 -0.939693 0   
     length 7.21712   
     axis 0 0 -20   XYZ
    dof rx
    limits (-10.0 170.0)
 end
 begin
     id 9 
     name rfoot
     direction -0.0825378 -0.226771 0.970444   
     length 1.89724  
     axis -90 -7.62852e-016 -20   XYZ
    dof rx rz
    limits (-45.0 90.0)
           (-20.0 70.0)
  end
  begin
     id 10 
     name rtoes
     direction -1.53515e-011 -4.22016e-011 1   
     length 0.955868   
     axis -90 -7.62852e-016 -20   XYZ
    dof rx
    limits (-90.0 20.0)
  end
  begin
     id 11 
     name lowerback
     direction -0.0104711 0.984802 -0.173368   
     length 1.84931   
     axis 0 0 0   XYZ
    dof rx ry rz
    limits (-20.0 45.0)
           (-30.0 30.0)
           (-30.0 30.0)
  end
  begin
     id 12 
     name upperback
     direction -0.00286433 0.999996 -0.000382853   
     length 1.85768   
     axis 0 0 0   XYZ
    dof rx ry rz
    limits (-20.0 45.0)
           (-30.0 30.0)
           (-30.0 30.0)
  end
  begin
     id 13 
     name thorax
     direction 0.00167534 0.996793 0.0800069   
     length 1.92   
     axis 0 0 0   XYZ
    dof rx ry rz
    limits (-20.0 45.0)
           (-30.0 30.0)
           (-30.0 30.0)
  end
  begin
     id 14 
     name lowerneck
     direction -0.0672491 0.995415 0.068018   
     length 1.58923   
     axis 0 0 0   XYZ
    dof rx ry rz
    limits (-20.0 45.0)
           (-30.0 30.0)
           (-30.0 30.0)
  end
  begin
     id 15 
     name upperneck
     direction 0.0958019 0.982476 -0.159884   
     length 1.60189   
     axis 0 0 0   XYZ
    dof rx ry rz
    limits (-20.0 45.0)
           (-30.0 30.0)
           (-30.0 30.0)
  end
  begin
     id 16
     name head
     direction 0.032989 0.997338 -0.0650226  
     length 1.61681  
     axis 0 0 0   XYZ
    dof rx ry rz
    limits (-20.0 45.0)
           (-30.0 30.0)
           (-30.0 30.0)
  end
  begin
     id 17 
     name lclavicle
     direction 0.954279 0.298875 -0.00496069  
     length 2.99449  
     axis 0 0 0   XYZ
    dof ry rz
    limits (-20.0 10.0)
           (0.0 20.0)
  end
  begin
     id 18 
     name lhumerus
     direction 1 -4.48985e-011 -4.2057e-027   
     length 4.79185   
     axis 180 -30 -90   XYZ
    dof rx ry rz
    limits (-60.0 90.0)
           (-90.0 90.0)
           (-90.0 90.0)
  end
  begin
     id 19
     name lradius
     direction 1 -4.48945e-011 1.15441e-028   
     length 2.65553   
     axis 180 -30 -90   XYZ
    dof rx
    limits (-10.0 170.0)
  end
  begin
     id 20
     name lwrist
     direction 1 -4.4899e-011 4.8894e-028   
     length 1.32777   
     axis -2.56392e-016 90 90   XYZ
    dof ry
    limits (-180.0 0.0)
 end
  begin
     id 21 
     name lhand
     direction 1 -4.48908e-011 9.7788e-028   
     length 0.743904   
     axis -6.23971e-016 90 90   XYZ
    dof rx rz
    limits (-90.0 90.0)
           (-45.0 45.0)
  end
  begin
     id 22 
     name lfingers
     direction 1 -4.49068e-011 1.95576e-027   
     length 0.599754   
     axis -1.24794e-015 90 90   XYZ
    dof rx
    limits (0.0 90.0)
  end
  begin
     id 23
     name lthumb
     direction 0.707107 -6.34883e-011 0.707107   
     length 0.861131   
     axis -90 45 2.85299e-015   XYZ
    dof rx rz
    limits (-45.0 45.0)
           (-45.0 45.0)
  end
  begin
     id 24 
     name rclavicle
     direction -0.957921 0.286916 0.00811568   
     length 3.06817  
     axis 0 0 0   XYZ 
    dof ry rz
    limits (-10.0 20.0)
           (-20.0 0.0)
  end
  begin
     id 25 
     name rhumerus
     direction -1 -4.48971e-011 -3.07942e-027  
     length 4.77254   
     axis 180 30 90   XYZ
    dof rx ry rz
    limits (-90.0 60.0)
           (-90.0 90.0)
           (-90.0 90.0)
  end
  begin
     id 26 
     name rradius
     direction -1 -4.48957e-011 -9.6815e-028   
     length 2.75995   
     axis 180 30 90   XYZ
    dof rx
    limits (-10.0 170.0)
  end
  begin
     id 27 
     name rwrist
     direction -1 -4.48979e-011 4.8894e-028   
     length 1.37997   
     axis -2.56392e-016 -90 -90   XYZ
    dof ry
    limits (-180.0 0.0)
  end
  begin
     id 28
     name rhand
     direction -1 -4.48906e-011 9.7788e-028   
     length 0.701619   
     axis -6.23971e-016 -90 -90   XYZ
    dof rx rz
    limits (-90.0 90.0)
           (-45.0 45.0)
  end
  begin
     id 29
     name rfingers
     direction -1 -4.49018e-011 1.95576e-027   
     length 0.565663   
     axis -1.24794e-015 -90 -90   XYZ
    dof rx
    limits (0.0 90.0)
  end
  begin
     id 30
     name rthumb
     direction -0.707107 -6.34881e-011 0.707107   
     length 0.812183   
     axis -90 -45 -2.85299e-015   XYZ
    dof rx rz
    limits (-45.0 45.0)
           (-45.0 45.0)
  end
:hierarchy
  begin
    root lhipjoint rhipjoint lowerback
    lhipjoint lfemur
    lfemur ltibia
    ltibia lfoot
    lfoot ltoes
    rhipjoint rfemur
    rfemur rtibia
    rtibia rfoot
    rfoot rtoes
    lowerback upperback
    upperback thorax
    thorax lowerneck lclavicle rclavicle
    lowerneck upperneck
    upperneck head
    lclavicle lhumerus
    lhumerus lradius
    lradius lwrist
    lwrist lhand lthumb
    lhand lfingers
    rclavicle rhumerus
    rhumerus rradius
    rradius rwrist
    rwrist rhand rthumb
    rhand rfingers
  end

#!OML:ASF F:\VICON\USERDATA\INSTALL\rory3\rory3.ASF
:FULLY-SPECIFIED
:DEGREES
1243
root 0.198661 15.5985 -1.91378 1.43255 -20.8371 5.34473
lowerback 22.2462 -9.25932 -0.147184
upperback 9.07949 -11.9835 4.15947
thorax -1.23873 -6.15296 7.1881
lowerneck -3.15976 -3.90776 -11.1987
upperneck 28.4089 -7.68435 11.3927
head 10.3923 -3.74972 5.26944
rclavicle 1.24042e-013 -8.42847e-014
rhumerus 126.041 -6.87442 -258.96
rradius 9.7464
rwrist 169.637
rhand -10.6443 18.0076
rfingers 7.12502
rthumb 15.3631 -11.4017
lclavicle 1.24042e-013 -8.42847e-014
lhumerus 37.1471 8.07632 135.622
lradius 11.5854
lwrist 22.9687
lhand -15.1108 31.5347
lfingers 7.12502
lthumb 11.0579 61.2234
rfemur -30.1697 19.4363 9.34584
rtibia 40.778
rfoot -11.9022 -2.84626
rtoes -17.4192
lfemur -17.0519 8.91692 -20.2857
ltibia 32.2033
lfoot -13.4688 8.01202
ltoes -12.6108
1244
root 0.198274 15.6108 -1.89321 1.25874 -21.3862 5.41512
lowerback 21.9048 -9.25888 -0.422787
upperback 9.06928 -12.0674 3.84692
thorax -1.0936 -6.19836 6.95639
lowerneck -3.10935 -3.79523 -11.0763
upperneck 28.7555 -7.50946 11.0649
head 10.4711 -3.69761 5.15497
rclavicle -3.65764e-014 5.24792e-014
rhumerus 125.85 -4.94106 -261.269
rradius 10.2989
rwrist 173.839
rhand -11.2411 18.1459
rfingers 7.12502
rthumb 14.7883 -11.3064
lclavicle -3.65764e-014 5.24792e-014
lhumerus 37.3865 8.42625 136.079
lradius 11.5456
lwrist 22.9153
lhand -14.6675 30.8637
lfingers 7.12502
lthumb 11.4854 60.5291
rfemur -29.9138 19.7734 9.32191
rtibia 40.4555
rfoot -11.8292 -2.59342
rtoes -17.3022
lfemur -16.48 9.00487 -20.3278
ltibia 31.7632
lfoot -13.5421 8.38283
ltoes -12.9452
1245
root 0.199524 15.6241 -1.87269 1.04619 -21.8772 5.43913
lowerback 21.688 -9.26193 -0.604035
upperback 9.05778 -12.1282 3.56101
thorax -1.02576 -6.22755 6.7231
lowerneck -3.19052 -3.73436 -10.96
upperneck 29.147 -7.3798 10.682
head 10.5995 -3.66741 5.01496
rclavicle 9.70069e-014 -1.86858e-014
rhumerus 125.507 -3.59336 -262.662
rradius 10.7723
rwrist 176.644
rhand -11.8867 17.9682
rfingers 7.12502
rthumb 14.1661 -11.5288
lclavicle 9.70069e-014 -1.86858e-014
lhumerus 37.3744 7.80165 135.689
lradius 11.7105
lwrist 24.1118
lhand -14.3611 29.405
lfingers 7.12502
lthumb 11.781 59.0537
rfemur -29.5649 20.0762 9.37605
rtibia 40.1353
rfoot -11.7705 -2.40409
rtoes -17.312
lfemur -15.8422 9.08487 -20.3171
ltibia 31.3193
lfoot -13.6401 8.70334
ltoes -12.8981
1246
root 0.201987 15.6339 -1.85335 0.846137 -22.2284 5.34064
lowerback 21.5817 -9.32385 -0.721005
upperback 9.0205 -12.2434 3.38319
thorax -1.02037 -6.28342 6.60389
lowerneck -3.30319 -3.67165 -11.0291
upperneck 29.5389 -7.21351 10.2908
head 10.7392 -3.64062 4.90795
rclavicle 8.5875e-014 -1.51076e-014
rhumerus 125.119 -1.96576 -264.452
rradius 11.3209
rwrist 180.019
rhand -12.4823 17.9933
rfingers 7.12502
rthumb 13.5922 -11.543
lclavicle 8.5875e-014 -1.51076e-014
lhumerus 37.4283 7.34192 135.461
lradius 12.0127
lwrist 25.3414
lhand -13.9887 29.6123
lfingers 7.12502
lthumb 12.14 59.2401
rfemur -29.1455 20.2621 9.57937
rtibia 39.8298
rfoot -11.7252 -2.24869
rtoes -17.1745
lfemur -15.1968 9.02652 -20.1822
ltibia 30.8693
lfoot -13.7341 9.04635
ltoes -12.5995
1247
root 0.203889 15.642 -1.83416 0.609738 -22.6486 5.34314
lowerback 21.4021 -9.34704 -0.861599
upperback 8.97471 -12.3169 3.1081
thorax -1.01258 -6.31523 6.37543
lowerneck -3.11684 -3.6008 -11.1366
upperneck 29.7856 -7.09035 10.057
head 10.7776 -3.6326 4.86215
rclavicle -9.34288e-015 4.21423e-014
rhumerus 124.731 -0.71908 -265.729
rradius 11.9344
rwrist 182.896
rhand -12.73 18.0625
rfingers 7.12502
rthumb 13.3534 -11.4896
lclavicle -9.34288e-015 4.21423e-014
lhumerus 37.3635 6.99154 135.283
lradius 12.3303
lwrist 26.402
lhand -13.9695 30.6436
lfingers 7.12502
lthumb 12.1586 60.2703
rfemur -28.7509 20.5499 9.66676
rtibia 39.5216
rfoot -11.657 -2.11976
rtoes -16.9596
lfemur -14.5466 9.03186 -20.1547
ltibia 30.4355
lfoot -13.8708 9.40507
ltoes -12.4714
1248
root 0.205049 15.6501 -1.8164 0.372747 -23.144 5.399
lowerback 21.1533 -9.33151 -1.00859
upperback 8.92836 -12.3444 2.75701
thorax -0.993938 -6.32189 6.05116
lowerneck -2.79332 -3.53253 -11.1513
upperneck 29.9891 -6.99237 9.81532
head 10.772 -3.63145 4.79446
rclavicle -2.44505e-014 -1.98785e-014
rhumerus 124.372 0.11972 -266.572
rradius 12.536
rwrist 184.902
rhand -12.8847 18.1422
rfingers 7.12502
rthumb 13.2044 -11.4196
lclavicle -2.44505e-014 -1.98785e-014
lhumerus 37.0459 5.78675 134.22
lradius 12.6911
lwrist 28.3755
lhand -14.1474 30.9788
lfingers 7.12502
lthumb 11.987 60.6156
rfemur -28.4149 20.8653 9.69799
rtibia 39.2205
rfoot -11.5725 -1.94972
rtoes -17.0636
lfemur -13.917 9.09238 -20.1816
ltibia 30.0141
lfoot -13.9585 9.73791
ltoes -12.0531
1249
root 0.20603 15.6604 -1.79931 0.161968 -23.6058 5.3291
lowerback 20.9333 -9.34927 -1.10227
upperback 8.94353 -12.4037 2.47269
thorax -0.912932 -6.34932 5.77361
lowerneck -2.7912 -3.45909 -11.124
upperneck 30.3401 -6.83136 9.43533
head 10.8737 -3.60217 4.67306
rclavicle 2.94201e-014 1.03368e-014
rhumerus 123.935 0.879035 -267.44
rradius 13.017
rwrist 187.059
rhand -13.0803 17.9195
rfingers 7.12502
rthumb 13.0158 -11.6545
lclavicle 2.94201e-014 1.03368e-014
lhumerus 37.0702 5.24193 133.809
lradius 12.8917
lwrist 29.4267
lhand -13.8425 32.1021
lfingers 7.12502
lthumb 12.2809 61.7214
rfemur -28.0297 21.2006 9.86934
rtibia 38.9163
rfoot -11.4792 -1.82634
rtoes -17.0049
lfemur -13.2836 9.11378 -20.0706
ltibia 29.5976
lfoot -14.0595 10.036
ltoes -11.8156
1250
root 0.207908 15.6713 -1.78413 -0.0212562 -24.0382 5.26628
lowerback 20.6507 -9.38938 -1.14375
upperback 9.03533 -12.4852 2.14619
thorax -0.736411 -6.38933 5.41008
lowerneck -3.01504 -3.39464 -11.0595
upperneck 30.7 -6.6635 9.07374
head 11.0236 -3.55755 4.5493
rclavicle -1.04859e-013 4.19436e-014
rhumerus 123.338 1.49135 -268.173
rradius 13.5309
rwrist 189.093
rhand -13.23 17.7984
rfingers 7.12502
rthumb 12.8715 -11.7847
lclavicle -1.04859e-013 4.19436e-014
lhumerus 37.4252 5.93602 134.658
lradius 12.8857
lwrist 28.7863
lhand -13.9762 33.4433
lfingers 7.12502
lthumb 12.152 63.0704
rfemur -27.6795 21.4941 10.0205
rtibia 38.6065
rfoot -11.3658 -1.72154
rtoes -17.0861
lfemur -12.6889 9.01502 -19.9884
ltibia 29.1788
lfoot -14.1973 10.4631
ltoes -11.8147
1251
root 0.208538 15.6793 -1.77235 -0.204486 -24.4292 5.24684
lowerback 20.3732 -9.38777 -1.24595
upperback 9.10264 -12.5211 1.81732
thorax -0.581684 -6.40686 5.07224
lowerneck -3.11873 -3.34586 -11.0192
upperneck 30.9695 -6.53823 8.78929
head 11.1244 -3.53003 4.45335
rclavicle 3.57812e-014 -1.93815e-014
rhumerus 122.689 2.61217 -269.449
rradius 14.201
rwrist 191.71
rhand -13.417 17.9796
rfingers 7.12502
rthumb 12.6912 -11.6148
lclavicle 3.57812e-014 -1.93815e-014
lhumerus 37.6795 6.68887 135.655
lradius 12.7813
lwrist 28.0623
lhand -14.4455 33.334
lfingers 7.12502
lthumb 11.6995 62.9873
rfemur -27.3543 21.7661 10.1235
rtibia 38.2884
rfoot -11.2504 -1.59773
rtoes -17.078
lfemur -12.1598 8.92585 -19.9431
ltibia 28.8024
lfoot -14.339 10.7806
ltoes -11.5385
1252
root 0.209699 15.6874 -1.76087 -0.421166 -24.7748 5.19708
lowerback 20.3014 -9.36983 -1.46139
upperback 9.0508 -12.546 1.61433
thorax -0.60446 -6.41925 4.97156
lowerneck -3.10095 -3.28415 -11.068
upperneck 31.3248 -6.36843 8.3747
head 11.2311 -3.5118 4.33226
rclavicle 8.34896e-015 -1.72943e-014
rhumerus 122.09 4.43801 -271.628
rradius 14.8681
rwrist 195.571
rhand -13.7832 18.0109
rfingers 7.12502
rthumb 12.3382 -11.6051
lclavicle 8.34896e-015 -1.72943e-014
lhumerus 37.5186 5.87641 135.106
lradius 13.131
lwrist 29.6367
lhand -14.4999 33.3036
lfingers 7.12502
lthumb 11.6471 62.9599
rfemur -26.9689 22.0165 10.2766
rtibia 37.9863
rfoot -11.1762 -1.43901
rtoes -16.8249
lfemur -11.5937 8.79237 -19.8638
ltibia 28.4388
lfoot -14.4531 11.0726
ltoes -11.1843
1253
root 0.211524 15.6941 -1.74904 -0.579639 -25.0925 5.06892
lowerback 20.2541 -9.38056 -1.63956
upperback 8.9597 -12.5989 1.44524
thorax -0.67881 -6.44289 4.90082
lowerneck -2.92821 -3.19986 -11.1434
upperneck 31.5385 -6.18157 8.01154
head 11.2523 -3.48684 4.23503
rclavicle 4.79941e-014 -1.75862e-014
rhumerus 121.586 5.67545 -273.217
rradius 15.4186
rwrist 198.619
rhand -14.1502 17.7737
rfingers 7.12502
rthumb 11.9843 -11.8633
lclavicle 4.79941e-014 -1.75862e-014
lhumerus 37.2554 4.58188 133.953
lradius 13.761
lwrist 31.8828
lhand -14.3857 34.2036
lfingers 7.12502
lthumb 11.7572 63.8536
rfemur -26.6133 22.1978 10.5016
rtibia 37.7165
rfoot -11.1067 -1.25152
rtoes -16.6306
lfemur -11.0646 8.65066 -19.7291
ltibia 28.0917
lfoot -14.5447 11.431
ltoes -10.8833
1254
root 0.21379 15.7006 -1.73702 -0.750111 -25.4103 5.08704
lowerback 20.0027 -9.38948 -1.81355
upperback 8.9937 -12.6558 1.13717
thorax -0.550254 -6.47258 4.63473
lowerneck -2.95069 -3.17061 -11.1649
upperneck 31.722 -6.08178 7.75717
head 11.3127 -3.47749 4.15644
rclavicle 2.46493e-014 -3.90612e-014
rhumerus 121.004 6.33762 -274.149
rradius 15.9153
rwrist 200.606
rhand -14.4368 17.5328
rfingers 7.12502
rthumb 11.708 -12.12
lclavicle 2.46493e-014 -3.90612e-014
lhumerus 37.4238 4.58114 134.012
lradius 13.8496
lwrist 32.1103
lhand -14.1268 34.6447
lfingers 7.12502
lthumb 12.0068 64.2803
rfemur -26.3388 22.3245 10.5518
rtibia 37.4816
rfoot -11.0515 -1.05825
rtoes -16.5947
lfemur -10.589 8.4804 -19.7622
ltibia 27.7361
lfoot -14.6022 11.854
ltoes -10.8481
1255
root 0.215348 15.7065 -1.72544 -0.95731 -25.7346 5.1737
lowerback 19.9139 -9.32278 -2.17826
upperback 8.91973 -12.6417 0.954318
thorax -0.554277 -6.47063 4.62373
lowerneck -2.97029 -3.17457 -11.3748
upperneck 31.9721 -5.99517 7.45766
head 11.4087 -3.50159 4.09387
rclavicle -6.92765e-014 1.43125e-014
rhumerus 120.5 6.72096 -274.519
rradius 16.488
rwrist 202.17
rhand -14.972 17.499
rfingers 7.12502
rthumb 11.1918 -12.1825
lclavicle -6.92765e-014 1.43125e-014
lhumerus 37.5416 4.49814 134.096
lradius 13.9257
lwrist 32.6602
lhand -13.8918 34.6488
lfingers 7.12502
lthumb 12.2334 64.271
rfemur -26.0688 22.5182 10.5342
rtibia 37.2776
rfoot -11.0335 -0.924798
rtoes -16.8094
lfemur -10.1271 8.38816 -19.8573
ltibia 27.4157
lfoot -14.6859 12.208
ltoes -10.5384
1256
root 0.216594 15.7112 -1.71808 -1.19803 -25.9774 5.33814
lowerback 20.2776 -9.16741 -2.93377
upperback 8.47192 -12.5724 1.08528
thorax -1.03366 -6.43577 5.24945
lowerneck -2.52774 -3.13741 -11.9138
upperneck 32.2635 -5.82095 6.977
head 11.4302 -3.55785 4.03624
rclavicle 5.87409e-014 -3.71727e-014
rhumerus 120.344 7.00891 -274.367
rradius 17.1739
rwrist 203.815
rhand -15.5771 17.5702
rfingers 7.12502
rthumb 10.6081 -12.1421
lclavicle 5.87409e-014 -3.71727e-014
lhumerus 37.407 4.88361 134.748
lradius 14.0532
lwrist 33.2184
lhand -13.7753 34.4346
lfingers 7.12502
lthumb 12.3458 64.0501
rfemur -25.8131 22.6624 10.4444
rtibia 37.0882
rfoot -10.9993 -0.837699
rtoes -16.8876
lfemur -9.7091 8.28634 -20.0198
ltibia 27.1275
lfoot -14.7087 12.4885
ltoes -9.94427
